<svg xmlns="http://www.w3.org/2000/svg" version="1.1" xmlns:xlink="http://www.w3.org/1999/xlink" xmlns:svgjs="http://svgjs.dev/svgjs" width="128" height="128" viewBox="0 0 128 128"><g transform="matrix(0.8046875,0,0,0.8046875,12.760752631578946,30.70111348816642)"><svg viewBox="0 0 95 62" data-background-color="#ffffff" preserveAspectRatio="xMidYMid meet" height="83" width="128" xmlns="http://www.w3.org/2000/svg" xmlns:xlink="http://www.w3.org/1999/xlink"><g id="tight-bounds" transform="matrix(1,0,0,1,-0.24049999999999727,-0.08878659984661397)"><svg viewBox="0 0 95.481 62.17757319969323" height="62.17757319969323" width="95.481"><g><svg viewBox="0 0 95.481 62.17757319969323" height="62.17757319969323" width="95.481"><g><svg viewBox="0 0 95.481 62.17757319969323" height="62.17757319969323" width="95.481"><g id="textblocktransform"><svg viewBox="0 0 95.481 62.17757319969323" height="62.17757319969323" width="95.481" id="textblock"><g><svg viewBox="0 0 95.481 62.17757319969323" height="62.17757319969323" width="95.481"><g><svg viewBox="0 0 95.481 62.17757319969323" height="62.17757319969323" width="95.481"><g><svg xmlns="http://www.w3.org/2000/svg" xmlns:xlink="http://www.w3.org/1999/xlink" version="1.1" x="0" y="0" viewBox="2.160000000000001 18.85 95.66900079704861 62.300000000000004" enable-background="new 0 0 100 100" xml:space="preserve" height="62.17757319969323" width="95.481" class="icon-icon-0" data-fill-palette-color="accent" id="icon-0"><path fill="#0074d9" d="M95.17 65.59c-1.729-1.72-4.01-2.67-6.45-2.67-1.18 0-2.319 0.22-3.38 0.65L61.03 39.25c1.359-2.11 2.09-4.57 2.09-7.15 0-7.3-5.94-13.25-13.25-13.25-7.3 0-13.25 5.95-13.25 13.25 0 2.58 0.73 5.04 2.09 7.15L14.47 63.49c-1.01-0.37-2.08-0.57-3.19-0.57-2.44 0-4.73 0.95-6.45 2.67-1.72 1.72-2.66 4.01-2.67 6.44 0 2.439 0.95 4.72 2.67 6.45 1.72 1.72 4.01 2.659 6.45 2.659 2.43 0 4.72-0.939 6.44-2.659 1.72-1.73 2.67-4.011 2.67-6.45 0-1.67-0.45-3.28-1.29-4.681v-0.01l23.91-23.91c1.2 0.74 2.5 1.27 3.86 1.58v18.42c-3.56 1.24-6.11 4.63-6.11 8.601 0 5.029 4.08 9.109 9.11 9.109 5.02 0 9.11-4.08 9.11-9.109 0-3.971-2.561-7.36-6.11-8.601V45.01c1.37-0.31 2.67-0.84 3.86-1.58L80.81 67.52C78.83 71 79.32 75.51 82.28 78.48c1.72 1.72 4.01 2.67 6.439 2.67 2.44 0 4.73-0.95 6.45-2.67 1.72-1.73 2.66-4.011 2.66-6.45C97.83 69.6 96.89 67.31 95.17 65.59zM13.48 74.23c-1.18 1.18-3.23 1.18-4.4 0-0.59-0.58-0.92-1.37-0.92-2.2s0.33-1.61 0.92-2.2c0.58-0.59 1.37-0.91 2.2-0.91 0.83 0 1.61 0.32 2.2 0.91s0.91 1.37 0.91 2.2S14.07 73.64 13.48 74.23zM52.98 72.03c0 1.72-1.4 3.109-3.11 3.109-1.72 0-3.11-1.39-3.11-3.109 0-1.71 1.39-3.11 3.11-3.11C51.58 68.92 52.98 70.32 52.98 72.03zM54.92 37.31c-1.37 1.32-3.16 2.04-5.05 2.04-1.89 0-3.68-0.72-5.04-2.04-1.42-1.38-2.21-3.23-2.21-5.21 0-3.99 3.26-7.25 7.25-7.25 4 0 7.25 3.26 7.25 7.25C57.12 34.08 56.34 35.93 54.92 37.31zM90.92 74.23c-1.17 1.18-3.22 1.18-4.4 0-1.21-1.211-1.21-3.181 0-4.4 0.591-0.59 1.37-0.91 2.2-0.91s1.61 0.32 2.2 0.91 0.91 1.37 0.91 2.2S91.51 73.65 90.92 74.23z" data-fill-palette-color="accent"></path></svg></g></svg></g></svg></g></svg></g></svg></g></svg></g><defs></defs></svg><rect width="95.481" height="62.17757319969323" fill="none" stroke="none" visibility="hidden"></rect></g></svg></g></svg>